<?xml version="1.0" encoding="iso-8859-1"?>
<!-- Generator: Adobe Illustrator 19.0.0, SVG Export Plug-In . SVG Version: 6.00 Build 0)  -->
<svg version="1.1" id="Capa_1" xmlns="http://www.w3.org/2000/svg" xmlns:xlink="http://www.w3.org/1999/xlink" x="0px" y="0px"
	 viewBox="0 0 432 432" style="enable-background:new 0 0 432 432;" xml:space="preserve">
<path style="fill:#E6E6E6;" d="M264,0c13.255,0,24,10.745,24,24v384c0,13.255,10.745,24,24,24H24c-13.255,0-24-10.745-24-24V24
	C0,10.745,10.745,0,24,0H264z"/>
<path style="fill:#0071BC;" d="M24,0h240c13.255,0,24,10.745,24,24v40l0,0H0l0,0V24C0,10.745,10.745,0,24,0z"/>
<path style="fill:#DA4836;" d="M24,24h16v16H24V24z"/>
<path style="fill:#F8CF26;" d="M56,24h16v16H56V24z"/>
<path style="fill:#3DBF50;" d="M88,24h16v16H88V24z"/>
<g>
	<path style="fill:#0071BC;" d="M384,200v112c0,13.255,10.745,24,24,24s24-10.745,24-24V200H384z"/>
	<path style="fill:#0071BC;" d="M288,96v312c0,13.255,10.745,24,24,24s24-10.745,24-24V120c0-13.255,10.745-24,24-24H288z"/>
</g>
<path style="fill:#CCCCCC;" d="M336,336V120c0-13.255,10.745-24,24-24s24,10.745,24,24v192c0,13.255,10.745,24,24,24H336z"/>
<g>
	<path style="fill:#DA4836;" d="M107.2,166.4l-32-24c-3.535-2.651-4.251-7.665-1.6-11.2c0.455-0.606,0.994-1.145,1.6-1.6l32-24
		l9.6,12.8L93.336,136l23.464,17.6L107.2,166.4z"/>
	<path style="fill:#DA4836;" d="M180.8,166.4l-9.6-12.8l23.464-17.6L171.2,118.4l9.6-12.8l32,24c3.535,2.651,4.251,7.665,1.6,11.2
		c-0.455,0.606-0.994,1.145-1.6,1.6L180.8,166.4z"/>
	<path style="fill:#DA4836;" d="M120.567,173.013l32.007-79.994l14.862,5.947l-32.007,79.994L120.567,173.013z"/>
</g>
<g>
	<path style="fill:#999999;" d="M32,232h224v16H32V232z"/>
	<path style="fill:#999999;" d="M32,376h192v16H32V376z"/>
	<path style="fill:#999999;" d="M32,272h32v16H32V272z"/>
	<path style="fill:#999999;" d="M32,304h32v16H32V304z"/>
	<path style="fill:#999999;" d="M80,304h32v16H80V304z"/>
	<path style="fill:#999999;" d="M32,336h32v16H32V336z"/>
	<path style="fill:#999999;" d="M80,272h32v16H80V272z"/>
	<path style="fill:#999999;" d="M128,272h32v16h-32V272z"/>
	<path style="fill:#999999;" d="M80,200h176v16H80V200z"/>
	<path style="fill:#999999;" d="M48,200h16v16H48V200z"/>
	<path style="fill:#999999;" d="M240,376h16v16h-16V376z"/>
</g>
<g>
</g>
<g>
</g>
<g>
</g>
<g>
</g>
<g>
</g>
<g>
</g>
<g>
</g>
<g>
</g>
<g>
</g>
<g>
</g>
<g>
</g>
<g>
</g>
<g>
</g>
<g>
</g>
<g>
</g>
</svg>
